<svg xmlns="http://www.w3.org/2000/svg" fill="currentColor" viewBox="0 0 32 32"><path fill-rule="evenodd" clip-rule="evenodd" d="M2.66675 22.6668C2.66675 21.9304 3.2637 21.3335 4.00008 21.3335H28.0001C28.7365 21.3335 29.3334 21.9304 29.3334 22.6668C29.3334 23.4032 28.7365 24.0002 28.0001 24.0002H4.00008C3.2637 24.0002 2.66675 23.4032 2.66675 22.6668Z"/><path fill-rule="evenodd" clip-rule="evenodd" d="M8.94289 4.39052C9.46359 4.91122 9.46359 5.75544 8.94289 6.27614L5.8857 9.33333L8.94289 12.3905C9.46359 12.9112 9.46359 13.7554 8.94289 14.2761C8.42219 14.7968 7.57797 14.7968 7.05727 14.2761L3.05727 10.2761C2.53657 9.75544 2.53657 8.91122 3.05727 8.39052L7.05727 4.39052C7.57797 3.86983 8.42219 3.86983 8.94289 4.39052Z"/><path fill-rule="evenodd" clip-rule="evenodd" d="M2.66675 9.33333C2.66675 8.59695 3.2637 8 4.00008 8H28.0001C28.7365 8 29.3334 8.59695 29.3334 9.33333C29.3334 10.0697 28.7365 10.6667 28.0001 10.6667H4.00008C3.2637 10.6667 2.66675 10.0697 2.66675 9.33333Z"/><path fill-rule="evenodd" clip-rule="evenodd" d="M23.0573 17.724C23.578 17.2033 24.4222 17.2033 24.9429 17.724L28.9429 21.724C29.4636 22.2447 29.4636 23.0889 28.9429 23.6096L24.9429 27.6096C24.4222 28.1303 23.578 28.1303 23.0573 27.6096C22.5366 27.0889 22.5366 26.2447 23.0573 25.724L26.1145 22.6668L23.0573 19.6096C22.5366 19.0889 22.5366 18.2447 23.0573 17.724Z"/></svg>
