<svg width="48" height="32" viewBox="0 0 48 32" fill="currentColor" xmlns="http://www.w3.org/2000/svg">
		<path fill-rule="evenodd" clip-rule="evenodd" d="M21.7657 27H25.7046C31.8531 27 36.7527 22.122 36.9448 16.0963V16.0007C36.8488 9.87932 31.8531 4.90571 25.7046 5.00136H21.2853C15.425 5.19265 10.8137 10.1663 11.0058 16.0963C11.0058 22.0264 15.8093 26.9044 21.7657 27ZM12.9272 16.0006C12.9272 11.027 17.0582 6.91424 22.0539 6.91424C27.0495 6.91424 31.1806 11.027 31.1806 16.0006C31.1806 20.9742 27.0495 25.087 22.0539 25.087C17.0582 25.087 12.9272 20.9742 12.9272 16.0006Z"/>
		<path fill-rule="evenodd" clip-rule="evenodd" d="M23.4949 22.122V9.97491C26.8573 10.8357 28.9709 14.1834 28.1063 17.531C27.5298 19.8265 25.8006 21.5481 23.4949 22.122V22.122Z"/>
		<path fill-rule="evenodd" clip-rule="evenodd" d="M20.6128 22.122C17.2504 21.2612 15.2329 17.8179 16.0975 14.4703C16.674 12.2704 18.4032 10.5488 20.6128 9.97491V22.122V22.122Z"/>
	</svg>
