<svg xmlns="http://www.w3.org/2000/svg" viewBox="0 0 32 32" fill="currentColor"><path fill-rule="evenodd" clip-rule="evenodd" d="M10.1144 14.1144C10.6145 13.6143 11.2928 13.3333 12 13.3333C12.7072 13.3333 13.3855 13.6143 13.8856 14.1144C14.3857 14.6145 14.6667 15.2928 14.6667 16C14.6667 16.7072 14.3857 17.3855 13.8856 17.8856C13.3855 18.3857 12.7072 18.6667 12 18.6667C11.2928 18.6667 10.6145 18.3857 10.1144 17.8856C9.61429 17.3855 9.33333 16.7072 9.33333 16C9.33333 15.2928 9.61429 14.6145 10.1144 14.1144Z"/><path fill-rule="evenodd" clip-rule="evenodd" d="M18.1144 14.1144C18.6145 13.6143 19.2928 13.3333 20 13.3333C20.7072 13.3333 21.3855 13.6143 21.8856 14.1144C22.3857 14.6145 22.6667 15.2928 22.6667 16C22.6667 16.7072 22.3857 17.3855 21.8856 17.8856C21.3855 18.3857 20.7072 18.6667 20 18.6667C19.2928 18.6667 18.6145 18.3857 18.1144 17.8856C17.6143 17.3855 17.3333 16.7072 17.3333 16C17.3333 15.2928 17.6143 14.6145 18.1144 14.1144Z"/><path fill-rule="evenodd" clip-rule="evenodd" d="M18.81 4.73186C19.0601 4.23712 19.5902 3.94872 20.1414 4.00752C22.2331 4.23063 24.551 4.69893 26.7621 6.2393C26.9912 6.39888 27.1644 6.62634 27.2573 6.8896C28.6195 10.7494 29.3689 14.129 29.6593 16.8589C29.9443 19.5368 29.805 21.7447 29.2379 23.162C29.2242 23.1964 29.209 23.2302 29.1924 23.2633C28.6969 24.2536 27.9474 25.3864 27.0094 26.2923C26.091 27.1791 24.8302 28 23.3333 28C22.8608 28 22.4898 27.788 22.3107 27.6739C22.0915 27.5341 21.888 27.3604 21.7106 27.1896C21.352 26.8443 20.9848 26.3986 20.6577 25.9313C20.3289 25.4616 20.0134 24.9313 19.7748 24.4037C19.5498 23.9065 19.3333 23.2832 19.3333 22.6667C19.3333 21.9303 19.9303 21.3333 20.6667 21.3333C21.403 21.3333 22 21.9303 22 22.6667C22 22.7168 22.0335 22.9269 22.2044 23.3046C22.3616 23.652 22.5878 24.0384 22.8423 24.4021C23.0985 24.7681 23.3564 25.0724 23.5603 25.2687C23.5748 25.2827 23.5885 25.2956 23.6014 25.3075C24.0526 25.2232 24.5825 24.9288 25.157 24.374C25.8148 23.7388 26.3876 22.8958 26.7809 22.123C27.0917 21.2998 27.2731 19.6354 27.0077 17.1411C26.7526 14.7437 26.0994 11.7137 24.8888 8.19623C23.5851 7.37691 22.2091 6.99039 20.7657 6.77412L19.894 8.49881C19.6296 9.02184 19.0547 9.31093 18.4772 9.21123C16.8392 8.92847 15.1648 8.92847 13.5268 9.21123C12.9499 9.31082 12.3755 9.02244 12.1108 8.50029L11.2355 6.77394C9.79167 6.99018 8.41523 7.37668 7.11123 8.19624C5.90062 11.7137 5.24745 14.7437 4.99235 17.1411C4.72693 19.6354 4.90826 21.2998 5.21912 22.123C5.61239 22.8958 6.18517 23.7388 6.84303 24.374C7.4175 24.9288 7.94742 25.2232 8.39859 25.3075C8.41148 25.2956 8.4252 25.2827 8.43973 25.2687C8.64364 25.0724 8.90147 24.7681 9.15769 24.4021C9.41224 24.0384 9.63844 23.652 9.79561 23.3046C9.87377 23.1318 9.92828 22.9831 9.96188 22.8628C9.97844 22.8035 9.98841 22.7564 9.99405 22.7211C9.99682 22.7037 9.99835 22.6904 9.99917 22.681L9.99989 22.6703L9.99999 22.6676L10 22.6669C10 22.6669 10 22.6668 10 22.6668C10 22.6667 10 22.6667 10 22.6667C10 21.9303 10.597 21.3333 11.3333 21.3333C12.0697 21.3333 12.6667 21.9303 12.6667 22.6667C12.6667 23.2832 12.4502 23.9065 12.2252 24.4037C11.9866 24.9313 11.6711 25.4616 11.3423 25.9313C11.0152 26.3986 10.648 26.8443 10.2894 27.1896C10.112 27.3604 9.90854 27.5341 9.68929 27.6739C9.5102 27.788 9.13922 28 8.66667 28C7.16983 28 5.90902 27.1791 4.99064 26.2923C4.05257 25.3864 3.30313 24.2536 2.80761 23.2633C2.79103 23.2302 2.77584 23.1964 2.76208 23.162C2.19498 21.7447 2.05571 19.5368 2.34065 16.8589C2.63114 14.129 3.38048 10.7494 4.74267 6.8896C4.83558 6.62634 5.00878 6.39888 5.23785 6.2393C7.44901 4.69893 9.76691 4.23063 11.8586 4.00752C12.4092 3.94879 12.9388 4.2365 13.1892 4.73038L14.0574 6.44267C15.3492 6.29582 16.6535 6.29577 17.9454 6.44252L18.81 4.73186ZM8.25602 25.4251C8.23864 25.4362 8.24115 25.4323 8.26145 25.4215C8.25933 25.423 8.25752 25.4242 8.25602 25.4251ZM23.744 25.4251C23.7425 25.4242 23.7407 25.423 23.7386 25.4215C23.7589 25.4323 23.7614 25.4362 23.744 25.4251Z"/><path fill-rule="evenodd" clip-rule="evenodd" d="M8.0513 21.6337C8.2536 20.9257 8.99158 20.5157 9.69963 20.718C14.1269 21.9829 17.8731 21.9829 22.3004 20.718C23.0084 20.5157 23.7464 20.9257 23.9487 21.6337C24.151 22.3418 23.741 23.0797 23.033 23.282C18.1269 24.6838 13.8731 24.6838 8.96704 23.282C8.25899 23.0797 7.849 22.3418 8.0513 21.6337Z"/></svg>
