<svg xmlns="http://www.w3.org/2000/svg" viewBox="0 0 32 32" fill="currentColor"><path fill-rule="evenodd" clip-rule="evenodd" d="M20.9429 11.057C21.4636 11.5777 21.4636 12.4219 20.9429 12.9426L12.9429 20.9426C12.4222 21.4633 11.578 21.4633 11.0573 20.9426C10.5366 20.4219 10.5366 19.5777 11.0573 19.057L19.0573 11.057C19.578 10.5363 20.4222 10.5363 20.9429 11.057Z"/><path d="M12.6667 13.3333C13.0349 13.3333 13.3333 13.0349 13.3333 12.6667C13.3333 12.2985 13.0349 12 12.6667 12C12.2985 12 12 12.2985 12 12.6667C12 13.0349 12.2985 13.3333 12.6667 13.3333Z"/><path fill-rule="evenodd" clip-rule="evenodd" d="M12.6667 13.3332C13.0349 13.3332 13.3334 13.0347 13.3334 12.6665C13.3334 12.2983 13.0349 11.9998 12.6667 11.9998C12.2986 11.9998 12.0001 12.2983 12.0001 12.6665C12.0001 13.0347 12.2986 13.3332 12.6667 13.3332ZM10.6667 12.6665C10.6667 11.5619 11.5622 10.6665 12.6667 10.6665C13.7713 10.6665 14.6667 11.5619 14.6667 12.6665C14.6667 13.7711 13.7713 14.6665 12.6667 14.6665C11.5622 14.6665 10.6667 13.7711 10.6667 12.6665Z"/><path d="M19.3334 19.9998C19.7016 19.9998 20.0001 19.7014 20.0001 19.3332C20.0001 18.965 19.7016 18.6665 19.3334 18.6665C18.9652 18.6665 18.6667 18.965 18.6667 19.3332C18.6667 19.7014 18.9652 19.9998 19.3334 19.9998Z"/><path fill-rule="evenodd" clip-rule="evenodd" d="M19.3333 20.0002C19.7014 20.0002 19.9999 19.7017 19.9999 19.3335C19.9999 18.9653 19.7014 18.6668 19.3333 18.6668C18.9651 18.6668 18.6666 18.9653 18.6666 19.3335C18.6666 19.7017 18.9651 20.0002 19.3333 20.0002ZM17.3333 19.3335C17.3333 18.2289 18.2287 17.3335 19.3333 17.3335C20.4378 17.3335 21.3333 18.2289 21.3333 19.3335C21.3333 20.4381 20.4378 21.3335 19.3333 21.3335C18.2287 21.3335 17.3333 20.4381 17.3333 19.3335Z"/><path fill-rule="evenodd" clip-rule="evenodd" d="M16.0133 5.34831C15.8024 5.34831 15.5936 5.38999 15.3989 5.47096C15.2042 5.55193 15.0274 5.67059 14.8788 5.82012L14.8761 5.82277L13.9428 6.75611L13.9401 6.75875C13.1413 7.55313 12.0607 7.99932 10.9341 7.99996H9.59996C9.17562 7.99996 8.76865 8.16853 8.46859 8.46859C8.16853 8.76865 7.99996 9.17562 7.99996 9.59996V10.9333C7.99932 12.0599 7.55313 13.1413 6.75875 13.9401L6.75611 13.9428L5.82277 14.8761L5.82012 14.8788C5.67059 15.0274 5.55193 15.2042 5.47096 15.3989C5.38999 15.5936 5.34831 15.8024 5.34831 16.0133C5.34831 16.2242 5.38999 16.433 5.47096 16.6277C5.55193 16.8224 5.67059 16.9992 5.82012 17.1478L5.82278 17.1505L6.75876 18.0865C7.55313 18.8853 7.99932 19.9659 7.99996 21.0925V22.4266C7.99996 22.851 8.16854 23.2579 8.46859 23.558C8.76865 23.8581 9.17562 24.0266 9.59996 24.0266H10.9333C12.0599 24.0273 13.1413 24.4735 13.9401 25.2678L13.9428 25.2705L14.8788 26.2065C15.0274 26.356 15.2042 26.4747 15.3989 26.5556C15.5936 26.6366 15.8024 26.6783 16.0133 26.6783C16.2242 26.6783 16.433 26.6366 16.6277 26.5556C16.8224 26.4747 16.9992 26.356 17.1478 26.2065L17.1505 26.2038L18.0838 25.2705L18.0865 25.2678C18.8853 24.4735 19.9659 24.0273 21.0925 24.0266H22.4266C22.851 24.0266 23.2579 23.8581 23.558 23.558C23.8581 23.2579 24.0266 22.851 24.0266 22.4266V21.0933C24.0273 19.9667 24.4735 18.8853 25.2678 18.0865L25.2705 18.0838L26.2038 17.1505L26.2065 17.1478C26.356 16.9992 26.4747 16.8224 26.5556 16.6277C26.6366 16.433 26.6783 16.2242 26.6783 16.0133C26.6783 15.8024 26.6366 15.5936 26.5556 15.3989C26.4747 15.2042 26.356 15.0274 26.2065 14.8788L26.2038 14.8761L25.2705 13.9428L25.2678 13.9401C24.4735 13.1413 24.0273 12.0606 24.0266 10.9341V9.59996C24.0266 9.17562 23.8581 8.76865 23.558 8.46859C23.2579 8.16854 22.851 7.99996 22.4266 7.99996H21.0933C19.9667 7.99932 18.8853 7.55313 18.0865 6.75875L18.0838 6.75611L17.1505 5.82277L17.1478 5.82012C16.9992 5.67059 16.8224 5.55193 16.6277 5.47096C16.433 5.38999 16.2242 5.34831 16.0133 5.34831ZM14.375 3.00872C14.8942 2.7928 15.451 2.68164 16.0133 2.68164C16.5756 2.68164 17.1324 2.7928 17.6516 3.00872C18.1702 3.22436 18.641 3.54025 19.0372 3.93825C19.0377 3.93877 19.0382 3.93929 19.0388 3.93981L19.9668 4.86784C19.9672 4.86821 19.9675 4.86858 19.9679 4.86895C20.2673 5.16607 20.6719 5.33296 21.0937 5.3333H22.4266C23.5582 5.3333 24.6435 5.78282 25.4436 6.58298C26.2438 7.38313 26.6933 8.46837 26.6933 9.59996V10.9325C26.6935 11.3544 26.8604 11.7591 27.1575 12.0585C27.1579 12.059 27.1583 12.0594 27.1588 12.0598L28.0868 12.9878C28.0872 12.9883 28.0877 12.9887 28.0881 12.9891C28.4862 13.3854 28.8022 13.8563 29.0179 14.375C29.2338 14.8942 29.345 15.451 29.345 16.0133C29.345 16.5756 29.2338 17.1324 29.0179 17.6516C28.8022 18.1702 28.4863 18.6411 28.0883 19.0373C28.0878 19.0378 28.0873 19.0383 28.0868 19.0388L27.1588 19.9668C27.1584 19.9671 27.1581 19.9675 27.1577 19.9678C26.8605 20.2673 26.6935 20.6721 26.6933 21.0941V22.4266C26.6933 23.5582 26.2438 24.6435 25.4436 25.4436C24.6435 26.2438 23.5582 26.6933 22.4266 26.6933H21.0941C20.6721 26.6935 20.2673 26.8605 19.9678 27.1577C19.9675 27.1581 19.9671 27.1584 19.9668 27.1588L19.0388 28.0868C19.0383 28.0873 19.0378 28.0878 19.0373 28.0883C18.6411 28.4863 18.1702 28.8022 17.6516 29.0179C17.1324 29.2338 16.5756 29.345 16.0133 29.345C15.451 29.345 14.8942 29.2338 14.375 29.0179C13.8563 28.8022 13.3854 28.4862 12.9891 28.0881C12.9887 28.0877 12.9883 28.0872 12.9878 28.0868L12.0598 27.1588C12.0594 27.1583 12.059 27.1579 12.0585 27.1575C11.7591 26.8604 11.3544 26.6935 10.9325 26.6933H9.59996C8.46837 26.6933 7.38313 26.2438 6.58298 25.4436C5.78282 24.6435 5.3333 23.5582 5.3333 22.4266V21.0937C5.33296 20.6719 5.16607 20.2673 4.86895 19.9679C4.86858 19.9675 4.86821 19.9672 4.86784 19.9668L3.93981 19.0388C3.93929 19.0382 3.93877 19.0377 3.93825 19.0372C3.54025 18.641 3.22436 18.1702 3.00872 17.6516C2.7928 17.1324 2.68164 16.5756 2.68164 16.0133C2.68164 15.451 2.7928 14.8942 3.00872 14.375C3.22439 13.8564 3.54032 13.3855 3.93839 12.9893C3.93886 12.9888 3.93934 12.9883 3.93981 12.9878L4.86784 12.0598C4.86823 12.0594 4.86861 12.059 4.86899 12.0587C5.16608 11.7593 5.33296 11.3547 5.3333 10.9329V9.59996C5.3333 8.46837 5.78282 7.38313 6.58298 6.58298C7.38313 5.78282 8.46837 5.3333 9.59996 5.3333H10.9329C11.3547 5.33296 11.7593 5.16608 12.0587 4.86899C12.059 4.86861 12.0594 4.86823 12.0598 4.86784L12.9878 3.93981C12.9883 3.93934 12.9888 3.93886 12.9893 3.93839C13.3855 3.54032 13.8564 3.22439 14.375 3.00872Z"/></svg>
