<svg width="48" height="32" viewBox="0 0 48 32" fill="currentColor" xmlns="http://www.w3.org/2000/svg">
		<path d="M10.5988 12.1154C11.02 11.9773 11.4706 11.9024 11.9395 11.9024C13.9856 11.9024 15.6923 13.3282 16.0839 15.2222L18.9834 14.6423C18.3181 11.4232 15.4175 9 11.9395 9C11.1431 9 10.3766 9.12726 9.66113 9.36168L10.5988 12.1154Z"/>
		<path d="M7.14818 21.4445L8.88427 19.2029C8.10933 18.419 7.62022 17.2747 7.62022 15.9991C7.62022 14.7246 8.10887 13.5802 8.88359 12.797L7.14659 10.5556C5.8298 11.8873 5 13.8326 5 15.9991C5 18.1669 5.83102 20.1128 7.14818 21.4445"/>
		<path d="M16.0848 16.7778C15.6919 18.6715 13.9862 20.0955 11.9419 20.0955C11.4729 20.0955 11.0214 20.0203 10.6002 19.8818L9.66113 22.637C10.3778 22.8726 11.1445 23 11.9419 23C15.4168 23 18.3154 20.5785 18.9834 17.3606L16.0848 16.7778Z"/>
		<path fill-rule="evenodd" clip-rule="evenodd" d="M32.9337 10.5556V18.522L34.3633 19.095L33.687 20.6663L32.2733 20.098C31.9554 19.9647 31.7402 19.7616 31.5768 19.5322C31.4199 19.2976 31.3035 18.9768 31.3035 18.5439V10.5556H32.9337ZM22.0913 16.4765C22.1269 14.1983 24.067 12.3798 26.4211 12.4147C28.4192 12.445 30.0748 13.7983 30.5096 15.5983L22.7816 18.7923C22.3327 18.1286 22.0776 17.3303 22.0913 16.4765ZM23.8596 16.7959C23.8491 16.7003 23.8416 16.6023 23.8444 16.5034C23.8666 15.1612 25.0088 14.0902 26.3958 14.1124C27.1507 14.1221 27.8211 14.4565 28.2743 14.9739L23.8596 16.7959ZM28.1115 18.2749C27.6457 18.713 27.0141 18.9799 26.3167 18.9703C25.8387 18.9626 25.3958 18.8242 25.0192 18.5936L24.0857 20.032C24.725 20.4228 25.4789 20.6541 26.2916 20.6662C27.4747 20.6832 28.553 20.2339 29.337 19.4918L28.1115 18.2749ZM38.8836 14.1123C38.6051 14.1123 38.3375 14.1558 38.0874 14.237L37.5312 12.6251C37.9557 12.488 38.4104 12.4135 38.8836 12.4135C40.9483 12.4135 42.6708 13.8318 43.0658 15.7159L41.3438 16.0554C41.1118 14.9465 40.0984 14.1123 38.8836 14.1123ZM36.0562 19.6309L37.2198 18.3586C36.7001 17.9137 36.3729 17.264 36.3729 16.5398C36.3729 15.8163 36.7001 15.1668 37.2193 14.7223L36.0549 13.4499C35.1721 14.2059 34.616 15.3105 34.616 16.5398C34.616 17.7705 35.1726 18.8747 36.0562 19.6309ZM38.8835 18.9681C40.0973 18.9681 41.1105 18.1346 41.3438 17.0274L43.0653 17.3683C42.6684 19.2503 40.9464 20.6667 38.8835 20.6667C38.41 20.6667 37.9547 20.592 37.529 20.4543L38.0866 18.8429C38.337 18.9239 38.6048 18.9681 38.8835 18.9681Z"/>
	</svg>
