<svg viewBox="0 0 32 32" fill="currentColor" xmlns="http://www.w3.org/2000/svg">
		<path fill-rule="evenodd" clip-rule="evenodd" d="M14.3431 5.00977C15.8434 3.50948 17.8783 2.66663 20 2.66663H24C24.7364 2.66663 25.3333 3.26358 25.3333 3.99996V9.33329C25.3333 10.0697 24.7364 10.6666 24 10.6666H20V12H24C24.4106 12 24.7983 12.1891 25.0509 12.5127C25.3036 12.8364 25.3931 13.2584 25.2935 13.6567L23.9602 18.99C23.8118 19.5836 23.2785 20 22.6667 20H20V28C20 28.7363 19.403 29.3333 18.6667 29.3333H13.3333C12.597 29.3333 12 28.7363 12 28V20H9.33333C8.59695 20 8 19.403 8 18.6666V13.3333C8 12.5969 8.59695 12 9.33333 12H12V10.6666C12 8.54489 12.8429 6.51006 14.3431 5.00977ZM20 5.33329C18.5855 5.33329 17.229 5.8952 16.2288 6.89539C15.2286 7.89558 14.6667 9.25214 14.6667 10.6666V13.3333C14.6667 14.0697 14.0697 14.6666 13.3333 14.6666H10.6667V17.3333H13.3333C14.0697 17.3333 14.6667 17.9302 14.6667 18.6666V26.6666H17.3333V18.6666C17.3333 17.9302 17.9303 17.3333 18.6667 17.3333H21.6256L22.2923 14.6666H18.6667C17.9303 14.6666 17.3333 14.0697 17.3333 13.3333V10.6666C17.3333 9.95938 17.6143 9.28111 18.1144 8.78101C18.6145 8.28091 19.2928 7.99996 20 7.99996H22.6667V5.33329H20Z"/>
	</svg>
