<svg xmlns="http://www.w3.org/2000/svg" viewBox="0 0 32 32" fill="currentColor" stroke-linecap="round" stroke-linejoin="round"><path fill-rule="evenodd" clip-rule="evenodd" d="M10.6667 6.66667C9.6058 6.66667 8.58838 7.08809 7.83824 7.83824C7.08809 8.58838 6.66667 9.6058 6.66667 10.6667V21.3333C6.66667 22.3942 7.08809 23.4116 7.83824 24.1618C8.58839 24.9119 9.6058 25.3333 10.6667 25.3333H21.3333C22.3942 25.3333 23.4116 24.9119 24.1618 24.1618C24.9119 23.4116 25.3333 22.3942 25.3333 21.3333V10.6667C25.3333 9.6058 24.9119 8.58839 24.1618 7.83824C23.4116 7.08809 22.3942 6.66667 21.3333 6.66667H10.6667ZM5.95262 5.95262C7.20286 4.70238 8.89856 4 10.6667 4H21.3333C23.1014 4 24.7971 4.70238 26.0474 5.95262C27.2976 7.20286 28 8.89856 28 10.6667V21.3333C28 23.1014 27.2976 24.7971 26.0474 26.0474C24.7971 27.2976 23.1014 28 21.3333 28H10.6667C8.89856 28 7.20286 27.2976 5.95262 26.0474C4.70238 24.7971 4 23.1014 4 21.3333V10.6667C4 8.89856 4.70238 7.20286 5.95262 5.95262Z"/><path fill-rule="evenodd" clip-rule="evenodd" d="M12.2288 12.2286C13.229 11.2284 14.5856 10.6665 16.0001 10.6665C17.4146 10.6665 18.7711 11.2284 19.7713 12.2286C20.7715 13.2288 21.3334 14.5854 21.3334 15.9998C21.3334 17.4143 20.7715 18.7709 19.7713 19.7711C18.7711 20.7713 17.4146 21.3332 16.0001 21.3332C14.5856 21.3332 13.229 20.7713 12.2288 19.7711C11.2287 18.7709 10.6667 17.4143 10.6667 15.9998C10.6667 14.5854 11.2287 13.2288 12.2288 12.2286ZM16.0001 13.3332C15.2928 13.3332 14.6146 13.6141 14.1145 14.1142C13.6144 14.6143 13.3334 15.2926 13.3334 15.9998C13.3334 16.7071 13.6144 17.3854 14.1145 17.8855C14.6146 18.3856 15.2928 18.6665 16.0001 18.6665C16.7073 18.6665 17.3856 18.3856 17.8857 17.8855C18.3858 17.3854 18.6667 16.7071 18.6667 15.9998C18.6667 15.2926 18.3858 14.6143 17.8857 14.1142C17.3856 13.6141 16.7073 13.3332 16.0001 13.3332Z"/><path fill-rule="evenodd" clip-rule="evenodd" d="M22.0001 8.6665C22.7365 8.6665 23.3334 9.26346 23.3334 9.99984V10.0132C23.3334 10.7496 22.7365 11.3465 22.0001 11.3465C21.2637 11.3465 20.6667 10.7496 20.6667 10.0132V9.99984C20.6667 9.26346 21.2637 8.6665 22.0001 8.6665Z"/></svg>
