<svg width="20" height="20" viewBox="0 0 20 20" fill="none" xmlns="http://www.w3.org/2000/svg"><path fill-rule="evenodd" clip-rule="evenodd" d="M8.33366 3.33366C5.57223 3.33366 3.33366 5.57223 3.33366 8.33366C3.33366 11.0951 5.57223 13.3337 8.33366 13.3337C11.0951 13.3337 13.3337 11.0951 13.3337 8.33366C13.3337 5.57223 11.0951 3.33366 8.33366 3.33366ZM1.66699 8.33366C1.66699 4.65176 4.65176 1.66699 8.33366 1.66699C12.0156 1.66699 15.0003 4.65176 15.0003 8.33366C15.0003 9.87425 14.4778 11.2928 13.6002 12.4217L18.0896 16.9111C18.415 17.2365 18.415 17.7641 18.0896 18.0896C17.7641 18.415 17.2365 18.415 16.9111 18.0896L12.4217 13.6002C11.2928 14.4778 9.87425 15.0003 8.33366 15.0003C4.65176 15.0003 1.66699 12.0156 1.66699 8.33366Z" fill="currentColor"/></svg>
