<svg width="51" height="32" viewBox="0 0 51 32" fill="currentColor" xmlns="http://www.w3.org/2000/svg">
		<path d="M23.5524 24.2952C23.637 24.3667 23.7274 24.4381 23.8163 24.5081C22.0999 25.65 20.0392 26.3135 17.827 26.3135C11.8522 26.315 7.0105 21.4733 7.0105 15.5C7.0105 9.52812 11.8522 4.685 17.8255 4.685C20.0392 4.685 22.0999 5.35 23.812 6.49041C23.7245 6.56479 23.637 6.63333 23.5713 6.70916C21.0105 8.92146 19.5449 12.1283 19.5449 15.5C19.5449 18.8702 21.0047 22.0771 23.5524 24.2952ZM31.1955 4.685C28.9788 4.685 26.9211 5.35 25.209 6.49041C25.2965 6.56479 25.384 6.63333 25.4497 6.70916C28.0105 8.92146 29.4761 12.1283 29.4761 15.5C29.4761 18.8687 28.0163 22.0727 25.4686 24.2952C25.384 24.3667 25.2936 24.4381 25.2047 24.5081C26.9211 25.65 28.9788 26.3135 31.194 26.3135C37.1688 26.315 42.0105 21.4733 42.0105 15.5C42.0105 9.52958 37.1688 4.685 31.1955 4.685ZM24.5105 7.00375C24.3705 7.11312 24.2349 7.2225 24.1022 7.34062C21.8213 9.3225 20.382 12.2406 20.382 15.5C20.382 18.7608 21.8213 21.6775 24.1022 23.6594C24.2334 23.776 24.372 23.8898 24.5105 23.9977C24.6505 23.8898 24.7861 23.776 24.9188 23.6594C27.1982 21.6775 28.639 18.7608 28.639 15.5C28.639 12.2406 27.1997 9.3225 24.9188 7.34062C24.7876 7.22396 24.6505 7.11312 24.5105 7.00375Z"/>
	</svg>
