<svg xmlns="http://www.w3.org/2000/svg" viewBox="0 0 32 32" fill="currentColor"><path fill-rule="evenodd" clip-rule="evenodd" d="M9.33337 12C9.33337 11.2636 9.93033 10.6666 10.6667 10.6666H21.3334C22.0698 10.6666 22.6667 11.2636 22.6667 12C22.6667 12.7363 22.0698 13.3333 21.3334 13.3333H10.6667C9.93033 13.3333 9.33337 12.7363 9.33337 12Z"/><path fill-rule="evenodd" clip-rule="evenodd" d="M9.33337 17.3333C9.33337 16.597 9.93033 16 10.6667 16H18.6667C19.4031 16 20 16.597 20 17.3333C20 18.0697 19.4031 18.6667 18.6667 18.6667H10.6667C9.93033 18.6667 9.33337 18.0697 9.33337 17.3333Z"/><path fill-rule="evenodd" clip-rule="evenodd" d="M7.99996 6.66667C7.29272 6.66667 6.61444 6.94762 6.11434 7.44772C5.61424 7.94781 5.33329 8.62609 5.33329 9.33333V20C5.33329 20.7072 5.61424 21.3855 6.11434 21.8856C6.61444 22.3857 7.29272 22.6667 7.99996 22.6667H10.6666C11.403 22.6667 12 23.2636 12 24V25.6451L16.6473 22.8567C16.8545 22.7323 17.0916 22.6667 17.3333 22.6667H24C24.7072 22.6667 25.3855 22.3857 25.8856 21.8856C26.3857 21.3855 26.6666 20.7072 26.6666 20V9.33333C26.6666 8.62609 26.3857 7.94781 25.8856 7.44772C25.3855 6.94762 24.7072 6.66667 24 6.66667H7.99996ZM4.22872 5.5621C5.22892 4.5619 6.58547 4 7.99996 4H24C25.4144 4 26.771 4.5619 27.7712 5.5621C28.7714 6.56229 29.3333 7.91885 29.3333 9.33333V20C29.3333 21.4145 28.7714 22.771 27.7712 23.7712C26.771 24.7714 25.4144 25.3333 24 25.3333H17.7026L11.3526 29.1433C10.9407 29.3905 10.4277 29.3969 10.0097 29.1603C9.59168 28.9236 9.33329 28.4804 9.33329 28V25.3333H7.99996C6.58547 25.3333 5.22892 24.7714 4.22872 23.7712C3.22853 22.771 2.66663 21.4145 2.66663 20V9.33333C2.66663 7.91885 3.22853 6.56229 4.22872 5.5621Z"/></svg>
