<svg width="49" height="32" viewBox="0 0 49 32" fill="none" xmlns="http://www.w3.org/2000/svg">
		<path d="M20.3406 22.0724V14.0428C20.3406 13.3334 20.6224 12.6531 21.124 12.1515C21.6256 11.6498 22.3059 11.368 23.0153 11.368L25.3859 11.3713C26.0934 11.3728 26.7715 11.6549 27.2712 12.1557C27.771 12.6566 28.0516 13.3353 28.0515 14.0428V15.7516C28.0515 16.461 27.7697 17.1414 27.2681 17.6431C26.7665 18.1447 26.0862 18.4266 25.3768 18.4267H22.0262" stroke="currentColor" stroke-linecap="round" stroke-linejoin="round"/>
		<path d="M28.7141 11.3676H29.7425C30.0337 11.3676 30.3129 11.4833 30.5188 11.6892C30.7247 11.8951 30.8404 12.1743 30.8404 12.4655V18.4631" stroke="currentColor" stroke-linecap="round" stroke-linejoin="round"/>
		<path d="M30.6194 10.4384L30.1532 9.97175C30.1257 9.94427 30.1038 9.91163 30.089 9.87571C30.0741 9.83978 30.0664 9.80128 30.0664 9.76239C30.0664 9.72351 30.0741 9.685 30.089 9.64908C30.1038 9.61316 30.1257 9.58052 30.1532 9.55303L30.6194 9.08678C30.6751 9.03117 30.7505 8.99994 30.8292 8.99994C30.9079 8.99994 30.9833 9.03117 31.039 9.08678L31.5048 9.55303C31.5323 9.58052 31.5541 9.61316 31.569 9.64908C31.5839 9.685 31.5916 9.72351 31.5916 9.76239C31.5916 9.80128 31.5839 9.83978 31.569 9.87571C31.5541 9.91163 31.5323 9.94427 31.5048 9.97175L31.0369 10.4384C31.0094 10.4659 30.9767 10.4878 30.9408 10.5027C30.9048 10.5176 30.8663 10.5252 30.8273 10.5252C30.7884 10.5252 30.7499 10.5176 30.7139 10.5027C30.678 10.4878 30.6453 10.4659 30.6178 10.4384" fill="currentColor"/>
		<path d="M32.8145 11.3622H33.8342C34.3587 11.362 34.8619 11.5702 35.2329 11.9409L37.6183 14.3263C37.6918 14.3999 37.779 14.4582 37.875 14.498C37.971 14.5378 38.0739 14.5583 38.1778 14.5583C38.2817 14.5583 38.3846 14.5378 38.4806 14.498C38.5766 14.4582 38.6638 14.3999 38.7373 14.3263L41.114 11.95C41.2976 11.7664 41.5157 11.6208 41.7556 11.5215C41.9955 11.4222 42.2527 11.3712 42.5124 11.3713H43.3415" stroke="currentColor" stroke-linecap="round" stroke-linejoin="round"/>
		<path d="M32.8145 18.4107H33.8342C34.3587 18.4108 34.8618 18.2027 35.2329 17.832L37.6183 15.4466C37.7668 15.2983 37.968 15.215 38.1778 15.215C38.3876 15.215 38.5888 15.2983 38.7373 15.4466L41.114 17.8233C41.485 18.194 41.9879 18.4021 42.5124 18.402H43.3415" stroke="currentColor" stroke-linecap="round" stroke-linejoin="round"/>
		<path d="M14.2607 19.9342C14.0091 19.9352 13.7598 19.8862 13.5272 19.7902C13.2947 19.6942 13.0834 19.5531 12.9057 19.375L10.9485 17.4166C10.8793 17.3504 10.7872 17.3134 10.6914 17.3134C10.5957 17.3134 10.5036 17.3504 10.4343 17.4166L8.47054 19.3804C8.29294 19.5587 8.08176 19.7001 7.8492 19.7964C7.61663 19.8927 7.3673 19.9419 7.11559 19.9413H6.73242L9.21249 22.4213C9.58445 22.7925 10.0885 23.001 10.6139 23.001C11.1394 23.001 11.6434 22.7925 12.0154 22.4213L14.5004 19.9359L14.2607 19.9342Z" fill="currentColor"/>
		<path d="M7.11601 13.0132C7.36771 13.0125 7.61706 13.0617 7.84962 13.158C8.08219 13.2543 8.29337 13.3957 8.47095 13.5741L10.4348 15.5383C10.503 15.6064 10.5955 15.6446 10.6919 15.6446C10.7882 15.6446 10.8807 15.6064 10.949 15.5383L12.9057 13.5815C13.0832 13.4029 13.2943 13.2613 13.5269 13.165C13.7595 13.0686 14.0089 13.0194 14.2607 13.0202H14.4963L12.0113 10.5352C11.8272 10.3511 11.6088 10.2051 11.3683 10.1054C11.1278 10.0058 10.8701 9.95453 10.6098 9.95453C10.3495 9.95453 10.0918 10.0058 9.85132 10.1054C9.61085 10.2051 9.39238 10.3511 9.20836 10.5352L6.73242 13.0132H7.11601Z" fill="currentColor"/>
		<path d="M16.5517 15.0762L15.05 13.5745C15.0162 13.5883 14.98 13.5956 14.9434 13.596H14.2605C13.9052 13.5969 13.5646 13.738 13.3127 13.9887L11.356 15.9442C11.1797 16.1201 10.9409 16.2189 10.6919 16.2189C10.4429 16.2189 10.2041 16.1201 10.0279 15.9442L8.06367 13.9812C7.81189 13.7304 7.47127 13.5891 7.11587 13.5881H6.27761C6.24306 13.5873 6.20892 13.5805 6.17675 13.5679L4.66556 15.0762C4.29439 15.4481 4.08594 15.9521 4.08594 16.4776C4.08594 17.0031 4.29439 17.5071 4.66556 17.8791L6.17345 19.3869C6.20555 19.3741 6.23973 19.3672 6.2743 19.3667H7.11587C7.47126 19.3656 7.81187 19.2244 8.06367 18.9736L10.0275 17.0098C10.3825 16.6551 11.0013 16.6551 11.356 17.0098L13.3127 18.9662C13.5646 19.2168 13.9052 19.3579 14.2605 19.3588H14.9434C14.98 19.3591 15.0162 19.3664 15.05 19.3803L16.5517 17.8786C16.7358 17.6946 16.8818 17.4762 16.9815 17.2357C17.0811 16.9952 17.1324 16.7375 17.1324 16.4772C17.1324 16.2169 17.0811 15.9592 16.9815 15.7187C16.8818 15.4783 16.7358 15.2602 16.5517 15.0762Z" fill="currentColor"/>
	</svg>
