<svg xmlns="http://www.w3.org/2000/svg" viewBox="0 0 32 32" fill="currentColor"><path fill-rule="evenodd" clip-rule="evenodd" d="M21.7238 3.05715C22.2445 2.53645 23.0887 2.53645 23.6094 3.05715L28.9428 8.39048C29.4635 8.91118 29.4635 9.7554 28.9428 10.2761L10.2761 28.9428C9.7554 29.4635 8.91118 29.4635 8.39048 28.9428L3.05715 23.6094C2.53645 23.0887 2.53645 22.2445 3.05715 21.7238L21.7238 3.05715ZM5.88558 22.6666L9.33329 26.1143L26.1143 9.33329L22.6666 5.88558L5.88558 22.6666Z"/><path fill-rule="evenodd" clip-rule="evenodd" d="M18.3905 6.39052C18.9112 5.86983 19.7554 5.86983 20.2761 6.39052L22.2761 8.39052C22.7968 8.91122 22.7968 9.75544 22.2761 10.2761C21.7554 10.7968 20.9112 10.7968 20.3905 10.2761L18.3905 8.27614C17.8698 7.75544 17.8698 6.91122 18.3905 6.39052Z"/><path fill-rule="evenodd" clip-rule="evenodd" d="M14.3905 10.3905C14.9112 9.86983 15.7554 9.86983 16.2761 10.3905L18.2761 12.3905C18.7968 12.9112 18.7968 13.7554 18.2761 14.2761C17.7554 14.7968 16.9112 14.7968 16.3905 14.2761L14.3905 12.2761C13.8698 11.7554 13.8698 10.9112 14.3905 10.3905Z"/><path fill-rule="evenodd" clip-rule="evenodd" d="M10.3905 14.3905C10.9112 13.8698 11.7554 13.8698 12.2761 14.3905L14.2761 16.3905C14.7968 16.9112 14.7968 17.7554 14.2761 18.2761C13.7554 18.7968 12.9112 18.7968 12.3905 18.2761L10.3905 16.2761C9.86983 15.7554 9.86983 14.9112 10.3905 14.3905Z"/><path fill-rule="evenodd" clip-rule="evenodd" d="M6.39052 18.3905C6.91122 17.8698 7.75544 17.8698 8.27614 18.3905L10.2761 20.3905C10.7968 20.9112 10.7968 21.7554 10.2761 22.2761C9.75544 22.7968 8.91122 22.7968 8.39052 22.2761L6.39052 20.2761C5.86983 19.7554 5.86983 18.9112 6.39052 18.3905Z"/></svg>
