<svg viewBox="0 0 32 32" fill="currentColor" xmlns="http://www.w3.org/2000/svg">
		<path fill-rule="evenodd" clip-rule="evenodd" d="M14.6666 4.00002C14.6666 3.26364 15.2636 2.66669 16 2.66669H21.444C22.0944 2.66669 22.6499 3.13595 22.7585 3.77719C22.9899 5.14231 23.6402 6.40166 24.6193 7.38071C25.5983 8.35977 26.8577 9.01005 28.2228 9.24144C28.864 9.35013 29.3333 9.90563 29.3333 10.556V15.9347C29.3333 16.3112 29.1741 16.6702 28.895 16.9229C28.6159 17.1757 28.243 17.2987 27.8683 17.2615C26.0469 17.0808 24.2834 16.56 22.6666 15.7338V19.3334C22.6662 21.212 22.1366 23.0529 21.1385 24.6444C20.1403 26.236 18.7141 27.5142 17.023 28.3326C15.332 29.1511 13.4446 29.4766 11.5772 29.2719C9.70969 29.0672 7.93763 28.3406 6.46402 27.1754C4.99041 26.0101 3.87484 24.4533 3.24513 22.6833C2.61542 20.9134 2.49703 19.0018 2.90353 17.1676C3.31003 15.3335 4.22498 13.6509 5.54355 12.3128C6.86212 10.9746 8.53098 10.0349 10.3589 9.60134C10.7557 9.50725 11.1737 9.59986 11.4935 9.85273C11.8134 10.1056 12 10.4909 12 10.8987V16.6667C12 17.0864 11.8024 17.4815 11.4666 17.7334C11.1939 17.9379 10.978 18.2088 10.8394 18.5202C10.7008 18.8317 10.6441 19.1734 10.6747 19.513C10.7053 19.8525 10.8222 20.1786 11.0143 20.4602C11.2064 20.7419 11.4673 20.9697 11.7722 21.1222C12.0771 21.2747 12.416 21.3467 12.7565 21.3313C13.0971 21.316 13.4281 21.2139 13.7181 21.0347C14.0081 20.8554 14.2475 20.605 14.4135 20.3073C14.5795 20.0095 14.6666 19.6743 14.6666 19.3334V4.00002ZM17.3333 5.33335V19.3334C17.3333 20.1288 17.13 20.9111 16.7426 21.6059C16.3552 22.3006 15.7967 22.8849 15.12 23.3031C14.4434 23.7213 13.671 23.9595 12.8764 23.9953C12.0817 24.0311 11.2911 23.8631 10.5796 23.5073C9.86814 23.1516 9.2594 22.6199 8.81121 21.9627C8.36302 21.3055 8.09025 20.5447 8.01882 19.7524C7.94738 18.9602 8.07964 18.1628 8.40305 17.4361C8.62988 16.9263 8.94547 16.4632 9.33329 16.0674V12.7995C8.63637 13.1551 7.99748 13.6217 7.44304 14.1844C6.47609 15.1657 5.80513 16.3996 5.50702 17.7447C5.20892 19.0897 5.29574 20.4915 5.75753 21.7895C6.21932 23.0875 7.0374 24.2291 8.11805 25.0837C9.1987 25.9382 10.4982 26.471 11.8677 26.6211C13.2372 26.7712 14.6212 26.5325 15.8613 25.9323C17.1014 25.3321 18.1473 24.3948 18.8793 23.2276C19.6112 22.0606 19.9996 20.7109 20 19.3334C20 19.3333 20 19.3335 20 19.3334V13.3334C20 12.8279 20.2857 12.3659 20.738 12.1403C21.1903 11.9146 21.7312 11.9641 22.1351 12.268C23.4848 13.2839 25.0302 13.998 26.6666 14.3698V11.6118C25.187 11.1701 23.8339 10.3666 22.7337 9.26633C21.6334 8.1661 20.8298 6.81296 20.3882 5.33335H17.3333Z"/>
	</svg>
