<svg xmlns="http://www.w3.org/2000/svg"  viewBox="0 0 24 24" fill="currentColor"><path fill-rule="evenodd" clip-rule="evenodd" d="M1.09998 4.99998C1.09998 4.50292 1.50292 4.09998 1.99998 4.09998H13C13.497 4.09998 13.9 4.50292 13.9 4.99998V5.09998H18C18.3161 5.09998 18.6091 5.26584 18.7717 5.53693L21.7717 10.5369C21.8556 10.6768 21.9 10.8369 21.9 11V17C21.9 17.497 21.497 17.9 21 17.9H19.7576C19.3789 19.061 18.2874 19.9 17 19.9C15.7125 19.9 14.621 19.061 14.2423 17.9H9.75761C9.37893 19.061 8.28743 19.9 6.99998 19.9C5.71252 19.9 4.62102 19.061 4.24234 17.9H2.99998C2.50292 17.9 2.09998 17.497 2.09998 17V13C2.09998 12.5029 2.50292 12.1 2.99998 12.1C3.49703 12.1 3.89998 12.5029 3.89998 13V16.1H4.24234C4.62102 14.9389 5.71252 14.1 6.99998 14.1C8.28743 14.1 9.37893 14.9389 9.75761 16.1H12.1V5.89998H1.99998C1.50292 5.89998 1.09998 5.49703 1.09998 4.99998ZM13.9 6.89998V10.1H19.4104L17.4904 6.89998H13.9ZM20.1 11.9H13.9V16.1H14.2423C14.621 14.9389 15.7125 14.1 17 14.1C18.2874 14.1 19.3789 14.9389 19.7576 16.1H20.1V11.9ZM2.09998 8.99997C2.09998 8.50292 2.50292 8.09997 2.99998 8.09997H6.99998C7.49703 8.09997 7.89998 8.50292 7.89998 8.99997C7.89998 9.49703 7.49703 9.89997 6.99998 9.89997H2.99998C2.50292 9.89997 2.09998 9.49703 2.09998 8.99997ZM6.99998 15.9C6.39246 15.9 5.89998 16.3925 5.89998 17C5.89998 17.6075 6.39246 18.1 6.99998 18.1C7.60749 18.1 8.09998 17.6075 8.09998 17C8.09998 16.3925 7.60749 15.9 6.99998 15.9ZM17 15.9C16.3925 15.9 15.9 16.3925 15.9 17C15.9 17.6075 16.3925 18.1 17 18.1C17.6075 18.1 18.1 17.6075 18.1 17C18.1 16.3925 17.6075 15.9 17 15.9Z"/></svg>
