<svg width="49" height="32" viewBox="0 0 49 32" fill="currentColor" xmlns="http://www.w3.org/2000/svg">
		<path fill-rule="evenodd" clip-rule="evenodd" d="M15.2187 21.9066H12.0577L9.68724 12.5973C9.57473 12.1691 9.33584 11.7905 8.98444 11.6121C8.10747 11.1637 7.14112 10.8068 6.08691 10.6268V10.2684H11.1792C11.882 10.2684 12.4091 10.8068 12.4969 11.4321L13.7268 18.1472L16.8863 10.2684H19.9596L15.2187 21.9066Z"/>
		<path fill-rule="evenodd" clip-rule="evenodd" d="M21.7166 21.9066H18.7312L21.1895 10.2684H24.1748L21.7166 21.9066Z"/>
		<path fill-rule="evenodd" clip-rule="evenodd" d="M28.0374 13.4925C28.1252 12.8657 28.6523 12.5073 29.2673 12.5073C30.2336 12.4173 31.2863 12.5973 32.1648 13.0441L32.6919 10.5384C31.8134 10.18 30.8471 10 29.9701 10C27.0726 10 24.9642 11.6121 24.9642 13.8494C24.9642 15.5514 26.4576 16.4451 27.5118 16.9835C28.6523 17.5203 29.0916 17.8787 29.0037 18.4156C29.0037 19.2208 28.1252 19.5792 27.2483 19.5792C26.1941 19.5792 25.1399 19.3108 24.1751 18.8624L23.6479 21.3697C24.7022 21.8166 25.8427 21.9965 26.8969 21.9965C30.1458 22.085 32.1648 20.4745 32.1648 18.0572C32.1648 15.013 28.0374 14.8346 28.0374 13.4925V13.4925Z"/>
		<path fill-rule="evenodd" clip-rule="evenodd" d="M40.2424 10.2684L42.6128 21.9066H39.891L39.5396 20.2061H35.7635L35.1501 21.9066H32.0769L36.4663 11.1637C36.642 10.6268 37.1691 10.2684 37.6962 10.2684H40.2424ZM39.0122 17.7887L38.1353 13.4025L36.554 17.7887H39.0122Z"/>
	</svg>
