<svg width="29" height="28" viewBox="0 0 29 28" fill="none" xmlns="http://www.w3.org/2000/svg">
<path id="Vector" d="M8.21429 28C13.6652 28 16.7655 25.5614 20.3707 18.0872C22.3369 13.9694 24.018 9.93193 25.944 5.93546L28.2391 6.65564C28.8531 6.85528 29.182 6.49519 28.8951 5.93546L26.1085 0.379209C25.9038 -0.0200649 25.4525 -0.0611118 25.1656 0.060163L18.2401 2.61813C17.6663 2.81776 17.7065 3.33831 18.2803 3.4969L20.3286 4.13686C18.6494 7.85533 16.5589 13.4508 14.8778 16.9677C12.9919 20.8858 12.0509 23.6434 8.85501 23.6434C5.65907 23.6434 5.12545 21.2049 6.47765 17.7271C8.0345 13.6896 10.6567 12.4899 13.648 13.3295C14.4685 12.21 15.0824 10.5308 15.3272 9.01211C14.4665 8.77142 13.4414 8.69306 12.5826 8.69306C7.74761 8.69306 2.95275 11.1316 0.986605 16.2475C-1.55332 22.843 0.795346 28 8.21237 28H8.21429Z" fill="#063534"/>
</svg>
