<?xml version="1.0" standalone="no"?>
<!DOCTYPE svg PUBLIC "-//W3C//DTD SVG 20010904//EN"
 "http://www.w3.org/TR/2001/REC-SVG-20010904/DTD/svg10.dtd">
<svg version="1.0" xmlns="http://www.w3.org/2000/svg"
 width="600.000000pt" height="600.000000pt" viewBox="0 0 600.000000 600.000000"
 preserveAspectRatio="xMidYMid meet">
<metadata>
Created by potrace 1.14, written by Peter Selinger 2001-2017
</metadata>
<g transform="translate(0.000000,600.000000) scale(0.100000,-0.100000)"
fill="#000000" stroke="none">
<path d="M2790 5954 c-19 -2 -80 -9 -135 -15 -138 -14 -368 -61 -510 -104
-347 -105 -712 -296 -995 -521 -109 -87 -377 -355 -464 -464 -288 -362 -496
-809 -586 -1260 -44 -223 -55 -334 -55 -585 0 -251 11 -362 55 -585 90 -451
298 -898 586 -1260 87 -109 355 -377 464 -464 362 -288 809 -496 1260 -586
223 -44 334 -55 585 -55 251 0 362 11 585 55 451 90 898 298 1260 586 109 87
377 355 464 464 288 362 496 809 586 1260 44 223 55 334 55 585 0 251 -11 362
-55 585 -90 451 -298 898 -586 1260 -87 109 -355 377 -464 464 -415 331 -923
547 -1461 621 -108 15 -512 28 -589 19z m1659 -1040 c13 -10 54 -80 96 -168
40 -83 108 -223 152 -311 44 -89 97 -198 117 -243 36 -79 37 -84 22 -108 -10
-13 -26 -24 -39 -24 -12 0 -92 23 -177 50 l-154 51 -18 -23 c-10 -13 -18 -26
-18 -30 0 -3 -17 -44 -39 -90 -39 -84 -233 -522 -396 -893 -230 -523 -336
-745 -473 -985 -212 -371 -436 -612 -685 -734 -224 -109 -524 -150 -827 -112
-719 91 -1014 652 -753 1436 184 556 597 918 1179 1035 164 32 439 35 602 4
71 -13 70 -12 47 -111 -25 -110 -65 -220 -116 -323 -71 -144 -67 -140 -131
-124 -31 8 -102 13 -173 13 -102 -1 -130 -5 -187 -26 -237 -88 -412 -305 -524
-647 -89 -271 -79 -478 31 -599 76 -85 228 -126 379 -103 213 33 350 165 514
497 169 340 290 618 565 1304 107 267 220 543 251 614 31 71 55 130 53 132 -1
1 -69 23 -150 49 -124 40 -150 52 -160 72 -8 17 -8 30 -1 41 9 14 231 106 364
152 14 5 149 56 300 114 151 58 286 105 300 106 14 0 36 -7 49 -16z"/>
</g>
</svg>
